HIERARCHY
ROOT Hips
{
	OFFSET 0.000000 0.000000 0.000000
	CHANNELS 6 Xposition Yposition Zposition Xrotation Yrotation Zrotation
	JOINT LeftUpLeg_virtual
	{
		OFFSET 0.000000 0.000000 0.000000
		CHANNELS 3 Xrotation Yrotation Zrotation
		JOINT LeftUpLeg
		{
			OFFSET 15.427100 -6.655098 0.678600
			CHANNELS 3 Xrotation Yrotation Zrotation
			JOINT LeftLeg
			{
				OFFSET 4.081073 -39.591068 13.024000
				CHANNELS 3 Xrotation Yrotation Zrotation
				JOINT LeftFoot
				{
					OFFSET -4.081074 -37.707932 -15.979700
					CHANNELS 3 Xrotation Yrotation Zrotation
					JOINT LeftToeBase
					{
						OFFSET 5.346399 -15.068900 20.645000
						CHANNELS 3 Xrotation Yrotation Zrotation
						JOINT LeftToe_End
						{
							OFFSET 2.754700 0.931300 11.300900
							CHANNELS 3 Xrotation Yrotation Zrotation
							End Site
							{
								OFFSET 0 0 0
							}
						}
					}
				}
			}
		}
	}
	JOINT RightUpLeg_virtual
	{
		OFFSET 0.000000 0.000000 0.000000
		CHANNELS 3 Xrotation Yrotation Zrotation
		JOINT RightUpLeg
		{
			OFFSET -15.569500 -6.655098 0.678600
			CHANNELS 3 Xrotation Yrotation Zrotation
			JOINT RightLeg
			{
				OFFSET -4.081825 -39.591045 13.023800
				CHANNELS 3 Xrotation Yrotation Zrotation
				JOINT RightFoot
				{
					OFFSET 4.081824 -37.707954 -15.979600
					CHANNELS 3 Xrotation Yrotation Zrotation
					JOINT RightToeBase
					{
						OFFSET -5.346400 -15.068900 20.645000
						CHANNELS 3 Xrotation Yrotation Zrotation
						JOINT RightToe_End
						{
							OFFSET -2.754700 0.931300 11.300900
							CHANNELS 3 Xrotation Yrotation Zrotation
							End Site
							{
								OFFSET 0 0 0
							}
						}
					}
				}
			}
		}
	}
	JOINT Spine_virtual
	{
		OFFSET 0.000000 0.000000 0.000000
		CHANNELS 3 Xrotation Yrotation Zrotation
		JOINT Spine
		{
			OFFSET -0.279200 12.230698 -2.892100
			CHANNELS 3 Xrotation Yrotation Zrotation
			JOINT Spine1
			{
				OFFSET -0.232667 10.192268 -1.242267
				CHANNELS 3 Xrotation Yrotation Zrotation
				JOINT Spine1_split
				{
					OFFSET -0.232667 10.192268 -1.242267
					CHANNELS 3 Xrotation Yrotation Zrotation
					JOINT Spine2
					{
						OFFSET -0.232667 10.192268 -1.242267
						CHANNELS 3 Xrotation Yrotation Zrotation
						JOINT Neck_virtual
						{
							OFFSET 0.000000 0.000000 0.000000
							CHANNELS 3 Xrotation Yrotation Zrotation
							JOINT Neck
							{
								OFFSET -0.418800 17.814194 8.416900
								CHANNELS 3 Xrotation Yrotation Zrotation
								JOINT Head
								{
									OFFSET 0.000000 7.031097 3.806800
									CHANNELS 3 Xrotation Yrotation Zrotation
									JOINT HeadTop_End
									{
										OFFSET 0.000000 24.646606 12.978600
										CHANNELS 3 Xrotation Yrotation Zrotation
										End Site
										{
											OFFSET 0 0 0
										}
									}
								}
							}
						}
						JOINT LeftShoulder_virtual
						{
							OFFSET 0.000000 0.000000 0.000000
							CHANNELS 3 Xrotation Yrotation Zrotation
							JOINT LeftShoulder
							{
								OFFSET 8.476499 7.247704 -3.868750
								CHANNELS 3 Xrotation Yrotation Zrotation
								JOINT LeftShoulder_split
								{
									OFFSET 8.476499 7.247704 -3.868750
									CHANNELS 3 Xrotation Yrotation Zrotation
									JOINT LeftArm
									{
										OFFSET 9.308998 -2.777710 0.208600
										CHANNELS 3 Xrotation Yrotation Zrotation
										JOINT LeftForeArm
										{
											OFFSET 29.972298 0.000000 0.000000
											CHANNELS 3 Xrotation Yrotation Zrotation
											JOINT LeftHand
											{
												OFFSET 26.026505 0.000000 0.000000
												CHANNELS 3 Xrotation Yrotation Zrotation
												End Site
												{
													OFFSET 0 0 0
												}
											}
										}
									}
								}
							}
						}
						JOINT RightShoulder_virtual
						{
							OFFSET 0.000000 0.000000 0.000000
							CHANNELS 3 Xrotation Yrotation Zrotation
							JOINT RightShoulder
							{
								OFFSET -7.570500 7.247704 -3.868750
								CHANNELS 3 Xrotation Yrotation Zrotation
								JOINT RightShoulder_split
								{
									OFFSET -7.570500 7.247704 -3.868750
									CHANNELS 3 Xrotation Yrotation Zrotation
									JOINT RightArm
									{
										OFFSET -9.308998 -2.777710 0.208500
										CHANNELS 3 Xrotation Yrotation Zrotation
										JOINT RightForeArm
										{
											OFFSET -29.972300 0.000000 0.000000
											CHANNELS 3 Xrotation Yrotation Zrotation
											JOINT RightHand
											{
												OFFSET -26.026505 0.000000 0.000000
												CHANNELS 3 Xrotation Yrotation Zrotation
												End Site
												{
													OFFSET 0 0 0
												}
											}
										}
									}
								}
							}
						}
					}
				}
			}
		}
	}
}
MOTION
Frames: 8
Frame Time: 0.03333333
4.993720 75.257782 -4.767540 0.000000 0.000000 0.000000 2.778320 -53.941993 2.951758 -45.156300 -1.353685 25.825584 43.303300 -4.872683 0.348523 -0.589536 -6.825514 -20.718906 -1.836438 -0.000619 -0.000032 0.000000 0.000000 0.000000 2.778320 -53.941993 2.951758 -35.236075 -22.047649 -42.497434 47.803111 11.049416 -1.567995 -16.767300 -4.558510 22.100518 -0.001663 -0.000376 0.000007 0.000000 0.000000 0.000000 2.778320 -53.941993 2.951758 8.799322 11.072205 -2.237301 3.497972 3.507878 -2.049953 0.000000 0.000000 0.000000 0.000000 0.000000 0.000000 3.552510 3.473951 -2.029869 1.529309 1.229487 6.799903 -2.678850 31.005726 -6.720911 0.000000 0.000000 0.000000 3.552510 3.473951 -2.029869 0.471072 -5.933840 -15.232034 0.000000 0.000000 0.000000 -16.907893 -33.002593 -20.091591 6.582975 -71.738932 6.768206 0.000000 0.000000 0.000000 3.552510 3.473951 -2.029869 -0.292000 14.898138 -21.620914 0.000000 0.000000 0.000000 -49.742410 22.305009 28.209730 -170.021058 81.192685 169.920695 0.000000 0.000000 0.000000 
5.164777 75.574409 -4.818211 0.000000 0.000000 0.000000 3.451116 -55.154635 3.546166 -45.000227 -0.404466 26.367122 42.847392 -5.352068 0.319066 -0.539233 -6.019821 -20.570522 -1.836438 -0.000617 -0.000032 0.000000 0.000000 0.000000 3.451116 -55.154635 3.546166 -35.888850 -21.259608 -41.650951 47.464877 11.417637 -1.633795 -16.096111 -4.648448 21.609837 -0.001663 -0.000376 0.000007 0.000000 0.000000 0.000000 3.451116 -55.154635 3.546166 9.875419 11.944368 -3.662118 3.653227 3.854111 -2.359846 0.000000 0.000000 0.000000 0.000000 0.000000 0.000000 3.709201 3.818436 -2.343582 0.899340 1.122421 7.046561 -5.163759 30.506459 -5.717720 0.000000 0.000000 0.000000 3.709201 3.818436 -2.343582 0.197269 -6.582469 -15.090465 0.000000 0.000000 0.000000 -21.316539 -37.047028 -24.029983 -2.140455 -74.216521 -1.661862 0.000000 0.000000 0.000000 3.709201 3.818436 -2.343582 3.715123 19.150259 -15.155082 0.000000 0.000000 0.000000 -26.887859 25.917107 16.996466 -171.948660 72.846440 172.094102 0.000000 0.000000 0.000000 
5.300132 75.923470 -4.822929 0.000000 0.000000 0.000000 4.020492 -56.529002 3.904902 -44.603840 0.374223 27.121768 42.460943 -5.638060 0.290419 -0.652357 -5.233174 -20.566734 -1.836438 -0.000619 -0.000032 0.000000 0.000000 0.000000 4.020492 -56.529002 3.904902 -36.512217 -20.755905 -40.987921 46.933208 10.897942 -1.732989 -15.339790 -3.421381 21.575968 -0.001663 -0.000376 0.000007 0.000000 0.000000 0.000000 4.020492 -56.529002 3.904902 11.092388 12.666074 -4.861429 3.882954 4.155485 -2.595618 0.000000 0.000000 0.000000 0.000000 0.000000 0.000000 3.940182 4.114885 -2.582874 0.077769 1.097552 7.089565 -9.455422 30.205897 -4.759079 0.000000 0.000000 0.000000 3.940182 4.114885 -2.582874 0.273689 -7.175074 -13.814897 0.000000 0.000000 0.000000 -27.151295 -40.609323 -28.235273 -1.969285 -72.750148 -1.517637 0.000000 0.000000 0.000000 3.940182 4.114885 -2.582874 2.514156 21.233538 -6.811736 0.000000 0.000000 0.000000 -5.943695 30.749928 2.272445 -179.151914 73.423796 179.050062 0.000000 0.000000 0.000000 
5.549019 76.441605 -4.809258 0.000000 0.000000 0.000000 4.553913 -58.509040 4.161401 -43.821746 1.397151 28.133916 41.901165 -5.981216 0.249736 -0.813054 -4.044999 -20.579963 -1.836438 -0.000620 -0.000032 0.000000 0.000000 0.000000 4.553913 -58.509040 4.161401 -37.387865 -20.295866 -39.637152 46.116317 12.087656 -1.828296 -14.105916 -3.498932 20.509392 -0.001663 -0.000376 0.000007 0.000000 0.000000 0.000000 4.553913 -58.509040 4.161401 12.235562 12.466308 -5.944120 4.167031 4.169353 -2.813602 0.000000 0.000000 0.000000 0.000000 0.000000 0.000000 4.213594 4.134000 -2.809062 -0.982846 1.275634 6.943000 -12.696570 31.538795 -4.386466 0.000000 0.000000 0.000000 4.213594 4.134000 -2.809062 0.469992 -7.672754 -11.958911 0.000000 0.000000 0.000000 -32.668347 -40.481111 -29.999328 -2.290995 -72.441922 -1.843463 0.000000 0.000000 0.000000 4.213594 4.134000 -2.809062 1.947801 20.533135 -7.026577 0.000000 0.000000 0.000000 -2.633529 35.447497 2.378808 -179.601272 76.885418 179.927059 0.000000 0.000000 0.000000 
5.800886 77.267067 -4.715233 0.000000 0.000000 0.000000 5.037069 -61.585453 4.301809 -42.399103 3.290054 29.694852 40.996114 -6.740581 0.184857 -1.159208 -2.162364 -20.513609 -1.836438 -0.000621 -0.000032 0.000000 0.000000 0.000000 5.037069 -61.585453 4.301809 -37.879061 -19.389432 -37.605782 44.616172 12.322781 -2.002967 -12.347709 -2.385534 19.854463 -0.001663 -0.000376 0.000007 0.000000 0.000000 0.000000 5.037069 -61.585453 4.301809 12.499839 11.084525 -6.801894 4.071504 3.785676 -2.922037 0.000000 0.000000 0.000000 0.000000 0.000000 0.000000 4.105556 3.752683 -2.926244 -2.291782 1.801537 6.624461 -12.662421 35.436046 -3.804089 0.000000 0.000000 0.000000 4.105556 3.752683 -2.926244 0.769316 -8.061248 -9.661326 0.000000 0.000000 0.000000 -35.580709 -36.252718 -27.728297 -2.888453 -74.011226 -2.423009 0.000000 0.000000 0.000000 4.105556 3.752683 -2.926244 1.349249 19.460619 -7.778389 0.000000 0.000000 0.000000 -5.538172 40.693912 0.917275 -176.327385 82.905465 177.423262 0.000000 0.000000 0.000000 
5.970459 78.506012 -4.476765 0.000000 0.000000 0.000000 4.909950 -65.975147 3.678850 -40.050129 6.412716 31.991783 39.577620 -8.015444 0.092853 -1.754791 0.393695 -20.332117 -1.836438 -0.000616 -0.000032 0.000000 0.000000 0.000000 4.909950 -65.975147 3.678850 -37.402778 -18.123231 -34.332052 42.076496 12.494559 -2.235564 -9.964237 -1.050627 19.191139 -0.001663 -0.000376 0.000007 0.000000 0.000000 0.000000 4.909950 -65.975147 3.678850 12.291928 9.159995 -7.413288 3.818991 3.218615 -2.814558 0.000000 0.000000 0.000000 0.000000 0.000000 0.000000 3.838662 3.190990 -2.826181 -3.681310 2.556726 6.152039 -10.484155 41.386076 -3.487242 0.000000 0.000000 0.000000 3.838662 3.190990 -2.826181 1.073171 -8.213361 -7.406993 0.000000 0.000000 0.000000 -36.310976 -28.793048 -22.416819 -3.544155 -77.006558 -3.053902 0.000000 0.000000 0.000000 3.838662 3.190990 -2.826181 0.960418 18.282395 -8.811838 0.000000 0.000000 0.000000 -12.435247 48.460681 5.387417 -116.739326 88.443799 118.661559 0.000000 0.000000 0.000000 
6.055730 79.932312 -4.125042 0.000000 0.000000 0.000000 4.125217 -70.748711 2.412984 -37.279200 10.189555 34.508489 37.726768 -8.232068 0.034581 -2.408297 1.827948 -20.443439 -1.836438 -0.000618 -0.000032 0.000000 0.000000 0.000000 4.125217 -70.748711 2.412984 -36.320590 -16.798570 -30.810881 38.881873 12.591038 -2.464440 -7.321788 0.479541 18.688340 -0.001663 -0.000376 0.000007 0.000000 0.000000 0.000000 4.125217 -70.748711 2.412984 11.836042 7.277051 -7.754978 3.563437 2.643120 -2.617964 0.000000 0.000000 0.000000 0.000000 0.000000 0.000000 3.570610 2.623561 -2.632249 -5.066370 3.385462 5.580526 -7.940834 47.738743 -3.503783 0.000000 0.000000 0.000000 3.570610 2.623561 -2.632249 1.385358 -7.833351 -4.442704 0.000000 0.000000 0.000000 -36.623481 -20.714152 -15.962316 -7.062821 -77.438608 -6.538770 0.000000 0.000000 0.000000 3.570610 2.623561 -2.632249 0.703803 17.146230 -9.993522 0.000000 0.000000 0.000000 -22.582690 55.357317 13.382695 53.761433 85.220981 -51.601355 0.000000 0.000000 0.000000 
6.061481 81.446777 -3.614040 0.000000 0.000000 0.000000 2.463138 -75.354595 0.360955 -34.547025 14.407844 36.340657 35.531792 -9.320144 -0.039195 -2.897723 4.102292 -20.194784 -1.836438 -0.000617 -0.000032 0.000000 0.000000 0.000000 2.463138 -75.354595 0.360955 -34.781284 -15.535868 -27.665978 35.160376 12.258053 -2.676472 -4.634107 2.495849 18.585153 -0.001663 -0.000376 0.000007 0.000000 0.000000 0.000000 2.463138 -75.354595 0.360955 11.386463 5.963244 -7.914630 3.390036 2.236879 -2.367843 0.000000 0.000000 0.000000 0.000000 0.000000 0.000000 3.388099 2.227147 -2.380069 -6.391437 4.101095 4.952930 -6.109284 53.240341 -3.535155 0.000000 0.000000 0.000000 3.388099 2.227147 -2.380069 1.504776 -7.319254 -1.091532 0.000000 0.000000 0.000000 -36.798156 -13.076781 -10.470999 -2.305738 -75.543559 -1.852696 0.000000 0.000000 0.000000 3.388099 2.227147 -2.380069 0.500779 15.551224 -11.217015 0.000000 0.000000 0.000000 -34.141271 60.694345 22.601530 28.449254 83.726706 -26.141043 0.000000 0.000000 0.000000 
